<svg width="65" height="65" viewBox="0 0 65 65" fill="none" xmlns="http://www.w3.org/2000/svg">
<circle cx="32.5" cy="32.5" r="32.5" fill="#F9E9EE"/>
<path d="M42.7886 20.4064C40.6456 16.5085 36.7607 13.5758 32.5027 13.5742C28.2448 13.5727 24.3598 16.5085 22.2169 20.4064C21.1073 22.4259 21.3152 26.4524 22.0158 29.6645H42.9899C43.6903 26.4528 43.8982 22.4262 42.7886 20.4064Z" fill="#703140"/>
<path d="M41.1505 29.1408L40.3555 34.7627C41.7695 34.9938 43.3893 33.3654 43.6238 31.9516C43.9121 30.2146 42.9222 28.9945 41.1505 29.1408Z" fill="#FFA39C"/>
<path d="M21.3776 31.9516C21.6121 33.3654 23.2319 34.9938 24.646 34.7627L23.8509 29.1408C22.0793 28.9945 21.0893 30.2146 21.3776 31.9516Z" fill="#FFA39C"/>
<path d="M40.6687 32.4191C40.5905 32.4194 40.5134 32.3999 40.4447 32.3624C40.3761 32.3249 40.318 32.2706 40.2759 32.2046C40.2339 32.1387 40.2091 32.0631 40.2041 31.985C40.199 31.907 40.2138 31.8289 40.247 31.758C40.4325 31.4494 40.7005 31.1987 41.0208 31.0341C41.3411 30.8695 41.7009 30.7976 42.0599 30.8266C42.1819 30.8391 42.2939 30.8993 42.3716 30.9942C42.4493 31.0891 42.4863 31.2108 42.4745 31.3329C42.4627 31.4549 42.403 31.5673 42.3086 31.6456C42.2141 31.7238 42.0926 31.7614 41.9705 31.7503C41.8017 31.7403 41.633 31.7717 41.4791 31.8418C41.3252 31.9119 41.1908 32.0185 41.0876 32.1525C41.0502 32.232 40.991 32.2993 40.9168 32.3465C40.8426 32.3937 40.7566 32.4189 40.6687 32.4191Z" fill="#F3878C"/>
<path d="M24.3384 32.4198C24.2501 32.4199 24.1636 32.3948 24.0891 32.3475C24.0146 32.3001 23.9551 32.2325 23.9177 32.1526C23.8142 32.0189 23.6797 31.9125 23.5259 31.8424C23.3721 31.7723 23.2035 31.7408 23.0348 31.7504C22.9739 31.7566 22.9125 31.7508 22.8539 31.7332C22.7953 31.7156 22.7408 31.6865 22.6935 31.6478C22.6462 31.6091 22.607 31.5613 22.5782 31.5074C22.5494 31.4535 22.5315 31.3943 22.5256 31.3335C22.5197 31.2726 22.5259 31.2112 22.5438 31.1527C22.5618 31.0942 22.5911 31.0399 22.6301 30.9928C22.6691 30.9457 22.717 30.9068 22.7711 30.8782C22.8252 30.8497 22.8845 30.8322 22.9454 30.8266C23.3043 30.7975 23.6643 30.8693 23.9846 31.0339C24.3049 31.1985 24.5729 31.4493 24.7582 31.7581C24.7912 31.8288 24.8059 31.9066 24.8009 31.9845C24.7958 32.0623 24.7713 32.1376 24.7294 32.2035C24.6876 32.2693 24.6298 32.3235 24.5615 32.3611C24.4931 32.3987 24.4164 32.4185 24.3384 32.4186V32.4198Z" fill="#F3878C"/>
<path d="M46.1929 51.5752H18.807C18.7006 51.5749 18.5961 51.5473 18.5034 51.495C18.4107 51.4427 18.333 51.3674 18.2778 51.2765C18.2225 51.1855 18.1916 51.0819 18.1879 50.9755C18.1842 50.8692 18.2079 50.7637 18.2567 50.6691C18.6909 49.8064 19.2753 49.028 19.9826 48.3703C21.4861 46.9751 25.3004 46.2821 27.2525 45.2922C27.7661 45.045 28.2164 44.6838 28.5692 44.2361C28.9219 43.7885 29.1678 43.2661 29.2881 42.709C29.319 42.5884 29.3437 42.4708 29.3623 42.3533C29.4491 41.6943 29.5028 41.0315 29.5232 40.3672H35.4752C35.4966 41.0305 35.5513 41.6923 35.6392 42.3502C35.6577 42.4677 35.6825 42.5884 35.7134 42.709C35.8337 43.2661 36.0795 43.7885 36.4323 44.2361C36.7851 44.6838 37.2354 45.045 37.749 45.2922C39.6979 46.2821 43.5123 46.9751 45.0189 48.3703C45.7244 49.0288 46.3079 49.8068 46.7426 50.6685C46.7915 50.763 46.8154 50.8685 46.8118 50.9749C46.8082 51.0813 46.7773 51.185 46.7221 51.2761C46.6669 51.3671 46.5893 51.4424 46.4966 51.4948C46.4039 51.5472 46.2993 51.5749 46.1929 51.5752Z" fill="#FFA39C"/>
<path d="M35.6401 42.3502C34.8037 42.8266 33.8991 43.1719 32.958 43.3741C32.6576 43.4422 32.3458 43.4422 32.0454 43.3741C31.105 43.1712 30.2007 42.827 29.3633 42.3533C29.4501 41.6943 29.5038 41.0315 29.5241 40.3672H35.4762C35.4976 41.0305 35.5523 41.6923 35.6401 42.3502Z" fill="#F3878C"/>
<path d="M40.8494 33.0911C40.3822 35.4669 39.4108 37.3787 38.1518 38.6224C38.1363 38.6409 38.1177 38.6564 38.1023 38.6719C36.9112 39.8258 35.3954 41.0725 32.9546 41.6107C32.6542 41.6788 32.3423 41.6788 32.042 41.6107C29.6011 41.0725 28.0853 39.8258 26.8943 38.6719C26.8788 38.6564 26.8602 38.6409 26.8448 38.6224C25.5795 37.3756 24.6483 35.4607 24.1843 33.0787C23.9354 31.7813 23.8223 30.4614 23.8471 29.1406C23.9151 23.6433 26.3096 26.4461 28.0822 21.3262C29.5628 17.0323 34.1672 17.4716 36.5233 20.3486C36.713 20.5766 36.9643 20.7452 37.2472 20.8343C40.3408 21.8274 40.9966 24.8188 41.1451 29.1406C41.1981 30.4644 41.0988 31.7899 40.8494 33.0911Z" fill="#FFB3A9"/>
<path d="M32.5037 33.7902C32.0709 33.7757 31.6583 33.6039 31.343 33.307C31.2668 33.2296 31.2226 33.1263 31.219 33.0178C31.2154 32.9092 31.2527 32.8033 31.3236 32.7209C31.3944 32.6386 31.4936 32.5859 31.6015 32.5733C31.7094 32.5606 31.8181 32.589 31.906 32.6527C31.9801 32.7387 32.0719 32.8076 32.175 32.8549C32.2781 32.9021 32.3903 32.9266 32.5037 32.9266C32.6172 32.9266 32.7293 32.9021 32.8324 32.8549C32.9356 32.8076 33.0273 32.7387 33.1014 32.6527C33.1893 32.589 33.298 32.5606 33.4059 32.5733C33.5138 32.5859 33.613 32.6386 33.6838 32.7209C33.7547 32.8033 33.792 32.9092 33.7884 33.0178C33.7848 33.1263 33.7406 33.2296 33.6644 33.307C33.3491 33.6039 32.9365 33.7757 32.5037 33.7902Z" fill="#F3878C"/>
<path d="M35.1977 35.7428C35.1805 35.6562 35.1296 35.58 35.0562 35.5308C34.9829 35.4817 34.893 35.4637 34.8063 35.4808H34.8011C34.4447 35.554 34.0783 35.5644 33.7183 35.5117C33.6286 35.4991 33.5408 35.4808 33.4368 35.4619C33.2893 35.428 33.1368 35.4208 32.9867 35.4406C32.8296 35.4682 32.6803 35.5294 32.549 35.62C32.5348 35.628 32.5188 35.6321 32.5026 35.6321C32.4863 35.6321 32.4703 35.628 32.4562 35.62C32.3249 35.5294 32.1756 35.4682 32.0184 35.4406C31.8683 35.4208 31.7159 35.428 31.5683 35.4619C31.4644 35.482 31.3765 35.4991 31.2868 35.5117C30.9268 35.5644 30.5604 35.554 30.204 35.4808H30.1985C30.1177 35.4648 30.0339 35.4792 29.9632 35.5214C29.8925 35.5635 29.8399 35.6304 29.8156 35.709C29.7913 35.7877 29.797 35.8725 29.8316 35.9472C29.8662 36.0219 29.9273 36.0811 30.003 36.1134C30.4293 36.2971 30.8906 36.3853 31.3545 36.3721C31.4696 36.3687 31.5859 36.3588 31.6856 36.351C31.7871 36.3449 31.8873 36.3769 31.9665 36.4407C32.1175 36.5325 32.2902 36.5826 32.467 36.5858C32.4769 36.5858 32.5224 36.5858 32.5363 36.5858C32.713 36.5826 32.8858 36.5325 33.0368 36.4407C33.1161 36.3768 33.2164 36.3449 33.318 36.351C33.4173 36.3588 33.5346 36.3687 33.649 36.3721C34.1129 36.3853 34.5741 36.297 35.0003 36.1134C35.0707 36.0836 35.1287 36.0306 35.1647 35.9631C35.2006 35.8956 35.2122 35.8179 35.1977 35.7428Z" fill="#F3878C"/>
<path d="M32.5023 38.1543C32.2594 38.1529 32.02 38.0963 31.8022 37.9888C31.7444 37.9643 31.6922 37.9283 31.6487 37.883C31.6053 37.8377 31.5714 37.784 31.5493 37.7253C31.5272 37.6665 31.5172 37.6039 31.52 37.5412C31.5228 37.4785 31.5382 37.417 31.5655 37.3604C31.5927 37.3038 31.6311 37.2534 31.6784 37.2121C31.7257 37.1708 31.7809 37.1396 31.8406 37.1202C31.9004 37.1009 31.9634 37.0939 32.0259 37.0996C32.0884 37.1053 32.1491 37.1237 32.2044 37.1535C32.2958 37.2023 32.3978 37.2278 32.5013 37.2278C32.6049 37.2278 32.7069 37.2023 32.7983 37.1535C32.9081 37.1069 33.0317 37.1044 33.1433 37.1464C33.2549 37.1885 33.346 37.2719 33.3978 37.3794C33.4495 37.4868 33.4579 37.6101 33.4212 37.7236C33.3844 37.8371 33.3054 37.9321 33.2005 37.9888C32.9832 38.096 32.7445 38.1526 32.5023 38.1543Z" fill="#F3878C"/>
<path d="M34.9996 26.2341C35.4197 26.048 35.8681 25.9339 36.3261 25.8966C36.767 25.8479 37.2122 25.8526 37.652 25.9105C38.0877 25.9682 38.5194 26.0524 38.9448 26.1626C39.3797 26.2663 39.7995 26.4249 40.1943 26.6347C40.2389 26.6599 40.2726 26.7008 40.2889 26.7495C40.3052 26.7981 40.3029 26.8511 40.2824 26.8981C40.262 26.9451 40.2249 26.9829 40.1782 27.0042C40.1315 27.0255 40.0786 27.0287 40.0297 27.0133L40.017 27.009C39.6307 26.8943 39.2335 26.8196 38.8319 26.786C38.4241 26.7484 38.0144 26.7351 37.605 26.7461C37.1973 26.7575 36.7935 26.7572 36.3945 26.7739C36.0048 26.793 35.6167 26.8367 35.2325 26.9048L35.2174 26.9078C35.1318 26.9245 35.0431 26.9092 34.968 26.8648C34.8929 26.8204 34.8367 26.7501 34.8101 26.6671C34.7834 26.5841 34.7881 26.4941 34.8232 26.4143C34.8584 26.3345 34.9216 26.2704 35.0008 26.2341H34.9996Z" fill="#703140"/>
<path d="M35.438 29.7413C35.6911 29.8254 35.9595 29.8538 36.2247 29.8245C36.5177 29.7985 36.8071 29.7404 37.0875 29.6513C37.231 29.6058 37.3752 29.5585 37.5141 29.5013C37.5855 29.4765 37.9549 29.3123 37.9549 29.3123C38.1561 29.2226 38.3752 29.1803 38.5953 29.1885C38.7173 29.1934 38.8364 29.2278 38.9422 29.2887C39.0481 29.3496 39.1376 29.4353 39.2032 29.5384C39.2217 29.572 39.2303 29.6101 39.228 29.6484C39.2258 29.6867 39.2127 29.7235 39.1903 29.7546C39.1679 29.7858 39.1371 29.8099 39.1016 29.8243C39.066 29.8386 39.0271 29.8426 38.9894 29.8357L38.9436 29.8273C38.837 29.8079 38.7271 29.8193 38.6268 29.8604C38.5159 29.9008 38.4101 29.9539 38.3116 30.0188C38.2806 30.0399 38.1028 30.1525 38.1028 30.1525C38.0217 30.197 37.9407 30.2453 37.8578 30.283C37.6914 30.3614 37.5201 30.4285 37.3448 30.4841C36.9864 30.5981 36.6116 30.6524 36.2355 30.6447C35.8252 30.6451 35.4264 30.5087 35.1023 30.257C35.047 30.2104 35.0097 30.1459 34.997 30.0747C34.9843 30.0035 34.997 29.93 35.0328 29.8672C35.0686 29.8043 35.1253 29.756 35.1931 29.7307C35.2608 29.7053 35.3353 29.7045 35.4036 29.7283L35.438 29.7413Z" fill="#703140"/>
<path d="M29.9035 30.2583C29.5794 30.5099 29.1806 30.6463 28.7703 30.6459C28.3942 30.6532 28.0194 30.5986 27.661 30.4841C27.4857 30.4285 27.3144 30.3614 27.1481 30.283C27.0651 30.2437 26.7245 30.0399 26.6942 30.0188C26.5957 29.9539 26.4899 29.9008 26.379 29.8604C26.2787 29.8193 26.1688 29.8079 26.0622 29.8273L26.0164 29.8357C25.9787 29.8425 25.9398 29.8385 25.9043 29.8242C25.8687 29.8098 25.838 29.7857 25.8156 29.7546C25.7932 29.7235 25.7801 29.6867 25.7777 29.6484C25.7754 29.6101 25.7839 29.572 25.8024 29.5384C25.868 29.4353 25.9576 29.3497 26.0635 29.2888C26.1694 29.2278 26.2885 29.1934 26.4105 29.1885C26.6307 29.1803 26.8497 29.2226 27.0509 29.3123C27.0509 29.3123 27.4203 29.4765 27.4918 29.5013C27.6307 29.5588 27.7748 29.6058 27.9184 29.6513C28.1987 29.7405 28.4881 29.7986 28.7812 29.8246C29.0463 29.8538 29.3147 29.8254 29.5678 29.7413L29.6025 29.7287C29.6708 29.7047 29.7453 29.7054 29.8131 29.7307C29.8809 29.756 29.9377 29.8042 29.9736 29.867C30.0095 29.9299 30.0223 30.0033 30.0096 30.0746C29.997 30.1458 29.9598 30.2104 29.9044 30.257L29.9035 30.2583Z" fill="#703140"/>
<path d="M29.7994 26.9048C29.4151 26.8366 29.0268 26.7929 28.6369 26.7739C28.2378 26.7572 27.8325 26.7575 27.4267 26.7461C27.0173 26.7351 26.6076 26.7484 26.1998 26.786C25.7981 26.8196 25.401 26.8943 25.0146 27.009L25.0016 27.013C24.9526 27.0289 24.8995 27.026 24.8525 27.0048C24.8056 26.9836 24.7682 26.9457 24.7477 26.8985C24.7271 26.8513 24.7249 26.7981 24.7414 26.7494C24.7579 26.7006 24.792 26.6597 24.837 26.6347C25.2318 26.4249 25.6517 26.2663 26.0865 26.1626C26.5119 26.0524 26.9437 25.9682 27.3793 25.9105C27.8191 25.8526 28.2643 25.8479 28.7052 25.8966C29.1632 25.9338 29.6117 26.0479 30.0318 26.2341C30.1108 26.2706 30.1736 26.3348 30.2086 26.4145C30.2436 26.4942 30.2482 26.584 30.2215 26.6669C30.1949 26.7497 30.1389 26.82 30.0641 26.8645C29.9892 26.9089 29.9007 26.9244 29.8152 26.9082L29.7994 26.9048Z" fill="#703140"/>
<path d="M26.8636 38.6201C25.5983 37.3734 24.6672 35.4585 24.2031 33.0764C25.4498 32.6588 26.9347 33.327 27.6617 34.7006C28.4382 36.1607 28.0763 37.8808 26.8636 38.6201Z" fill="#FFE1E1"/>
<path d="M40.8651 33.0886C40.398 35.4644 39.4266 37.3763 38.1676 38.6199C36.9518 37.8836 36.5898 36.1605 37.3663 34.7003C38.1026 33.3144 39.6092 32.6462 40.8651 33.0886Z" fill="#FFE1E1"/>
<path d="M27.6268 38.1853C27.5712 38.1851 27.5167 38.17 27.469 38.1415C27.4213 38.1129 27.3822 38.0721 27.3557 38.0232C27.3293 37.9743 27.3164 37.9192 27.3186 37.8637C27.3208 37.8082 27.3379 37.7543 27.3682 37.7076C27.4166 37.633 27.4607 37.5556 27.5003 37.4759C27.5178 37.4386 27.5425 37.4052 27.5731 37.3776C27.6037 37.35 27.6395 37.3287 27.6784 37.3152C27.7173 37.3016 27.7586 37.2959 27.7997 37.2985C27.8408 37.3011 27.881 37.3118 27.9179 37.3301C27.9548 37.3485 27.9877 37.374 28.0146 37.4052C28.0415 37.4364 28.0619 37.4726 28.0747 37.5118C28.0874 37.551 28.0921 37.5924 28.0886 37.6334C28.0851 37.6745 28.0735 37.7145 28.0543 37.7509C28.0044 37.8519 27.9486 37.9498 27.8873 38.0442C27.8591 38.0876 27.8205 38.1233 27.775 38.148C27.7295 38.1726 27.6786 38.1854 27.6268 38.1853ZM28.0695 36.7576H28.0549C28.0144 36.7557 27.9745 36.7459 27.9378 36.7286C27.901 36.7114 27.868 36.687 27.8406 36.657C27.8132 36.627 27.792 36.5919 27.7782 36.5537C27.7644 36.5155 27.7583 36.4749 27.7601 36.4343C27.762 36.3929 27.7629 36.3508 27.7629 36.3106C27.7629 36.2602 27.7629 36.2113 27.7592 36.1627C27.7572 36.1221 27.7632 36.0814 27.7768 36.0431C27.7905 36.0048 27.8116 35.9696 27.8389 35.9394C27.894 35.8785 27.971 35.842 28.0531 35.8379C28.1351 35.8338 28.2155 35.8624 28.2764 35.9176C28.3373 35.9727 28.3738 36.0497 28.3779 36.1318C28.381 36.1921 28.3826 36.2521 28.3822 36.3121C28.3822 36.3622 28.3822 36.4133 28.3788 36.4643C28.3747 36.5436 28.3403 36.6182 28.2827 36.6727C28.2252 36.7273 28.1488 36.7577 28.0695 36.7576ZM27.7939 35.2829C27.7333 35.2829 27.674 35.2652 27.6234 35.2319C27.5728 35.1986 27.5331 35.1511 27.5092 35.0954C27.4737 35.0113 27.4338 34.9281 27.3901 34.8458C27.3519 34.7742 27.3429 34.6906 27.365 34.6125C27.3871 34.5344 27.4386 34.4679 27.5086 34.4269C27.5778 34.3866 27.66 34.3751 27.7375 34.3948C27.8151 34.4144 27.8819 34.4637 27.9235 34.5321C27.9297 34.5423 27.9402 34.563 27.9451 34.5726C27.9884 34.6537 28.0358 34.752 28.0785 34.851C28.0986 34.8981 28.1067 34.9494 28.1021 35.0004C28.0975 35.0514 28.0803 35.1004 28.0521 35.1431C28.0239 35.1858 27.9856 35.2208 27.9405 35.2451C27.8954 35.2693 27.845 35.282 27.7939 35.282V35.2829ZM26.9178 34.0517C26.8411 34.0517 26.7671 34.0233 26.7102 33.9718C26.6421 33.91 26.5718 33.8519 26.4992 33.7977C26.4667 33.7733 26.4393 33.7428 26.4186 33.7078C26.3979 33.6728 26.3843 33.6342 26.3786 33.5939C26.3728 33.5537 26.375 33.5128 26.3851 33.4734C26.3952 33.4341 26.4129 33.3971 26.4373 33.3646C26.4617 33.3321 26.4922 33.3047 26.5272 33.284C26.5621 33.2633 26.6008 33.2497 26.6411 33.2439C26.6813 33.2382 26.7222 33.2404 26.7616 33.2505C26.8009 33.2606 26.8379 33.2783 26.8704 33.3027C26.958 33.3683 27.0437 33.4382 27.1263 33.5131C27.1727 33.555 27.2053 33.61 27.2198 33.6708C27.2343 33.7316 27.23 33.7954 27.2075 33.8538C27.1851 33.9122 27.1454 33.9623 27.0939 33.9977C27.0423 34.0331 26.9812 34.052 26.9187 34.052L26.9178 34.0517ZM23.8359 33.2288L23.8384 33.2334L23.8359 33.2288ZM25.5993 33.3401C25.5744 33.3402 25.5495 33.3372 25.5253 33.3312C25.4385 33.3099 25.3507 33.2932 25.2621 33.2814C25.2208 33.2774 25.1807 33.2651 25.1442 33.2453C25.1077 33.2255 25.0756 33.1986 25.0497 33.1661C25.0239 33.1336 25.0048 33.0963 24.9937 33.0563C24.9826 33.0163 24.9796 32.9745 24.985 32.9333C24.9904 32.8922 25.004 32.8525 25.025 32.8167C25.046 32.7809 25.074 32.7497 25.1074 32.725C25.1407 32.7003 25.1787 32.6825 25.219 32.6727C25.2594 32.663 25.3012 32.6614 25.3422 32.6682C25.4535 32.6826 25.5639 32.7033 25.6729 32.7301C25.7463 32.7481 25.8105 32.7924 25.8535 32.8546C25.8964 32.9168 25.9151 32.9925 25.9061 33.0675C25.897 33.1426 25.8608 33.2117 25.8043 33.2618C25.7478 33.312 25.6748 33.3397 25.5993 33.3398V33.3401Z" fill="#FF8E88"/>
<path d="M37.1431 38.0438C37.0818 37.9494 37.026 37.8515 36.976 37.7506C36.9569 37.7141 36.9452 37.6741 36.9418 37.6331C36.9383 37.592 36.943 37.5507 36.9557 37.5115C36.9684 37.4723 36.9888 37.436 37.0158 37.4048C37.0427 37.3736 37.0755 37.3481 37.1125 37.3298C37.1494 37.3114 37.1896 37.3007 37.2307 37.2981C37.2718 37.2955 37.313 37.3012 37.352 37.3148C37.3909 37.3284 37.4267 37.3496 37.4573 37.3772C37.4878 37.4048 37.5126 37.4382 37.5301 37.4755C37.5698 37.5552 37.6139 37.6325 37.6622 37.7072C37.6849 37.7413 37.7006 37.7796 37.7084 37.8198C37.7162 37.8599 37.7159 37.9013 37.7076 37.9414C37.6993 37.9814 37.6831 38.0195 37.66 38.0533C37.6369 38.0871 37.6073 38.1159 37.573 38.1382C37.5386 38.1605 37.5002 38.1757 37.4599 38.183C37.4196 38.1903 37.3783 38.1896 37.3383 38.1808C37.2983 38.172 37.2605 38.1554 37.227 38.1319C37.1935 38.1084 37.165 38.0784 37.1431 38.0438ZM36.6515 36.4621C36.6494 36.411 36.6484 36.36 36.6484 36.3099C36.6484 36.2499 36.6484 36.1899 36.6525 36.1295C36.6566 36.0475 36.6931 35.9704 36.754 35.9153C36.8149 35.8602 36.8952 35.8315 36.9773 35.8356C37.0593 35.8397 37.1364 35.8763 37.1915 35.9372C37.2466 35.9981 37.2753 36.0784 37.2712 36.1605C37.269 36.209 37.2675 36.2579 37.2678 36.3083C37.2678 36.3501 37.2678 36.3922 37.2702 36.4321C37.2721 36.4727 37.266 36.5132 37.2522 36.5514C37.2384 36.5896 37.2172 36.6248 37.1898 36.6548C37.1624 36.6848 37.1294 36.7091 37.0926 36.7264C37.0558 36.7436 37.016 36.7535 36.9754 36.7554H36.9609C36.8816 36.7555 36.8052 36.7251 36.7476 36.6705C36.6901 36.6159 36.6557 36.5413 36.6515 36.4621ZM37.1156 35.2578C37.0782 35.2418 37.0443 35.2186 37.0159 35.1896C36.9874 35.1605 36.965 35.1262 36.9499 35.0884C36.9347 35.0507 36.9272 35.0104 36.9276 34.9697C36.9281 34.9291 36.9366 34.8889 36.9525 34.8516C36.9955 34.7516 37.0426 34.6533 37.0862 34.5731C37.0908 34.5626 37.1016 34.5422 37.1075 34.5326C37.1491 34.4643 37.2159 34.415 37.2935 34.3953C37.371 34.3756 37.4532 34.3872 37.5224 34.4274C37.5925 34.4684 37.644 34.5348 37.6662 34.6129C37.6883 34.691 37.6793 34.7747 37.6412 34.8463C37.5972 34.9288 37.5574 35.012 37.5218 35.096C37.4979 35.1516 37.4582 35.1991 37.4076 35.2324C37.357 35.2657 37.2977 35.2835 37.2371 35.2834C37.1949 35.2834 37.1531 35.2747 37.1143 35.2578H37.1156ZM37.8834 33.9495C37.8561 33.9194 37.835 33.8841 37.8214 33.8459C37.8077 33.8076 37.8018 33.767 37.8038 33.7264C37.8058 33.6858 37.8159 33.646 37.8333 33.6093C37.8507 33.5725 37.8752 33.5396 37.9054 33.5124C37.9879 33.4375 38.0731 33.3674 38.1612 33.302C38.1937 33.2776 38.2307 33.2599 38.27 33.2498C38.3094 33.2397 38.3503 33.2375 38.3906 33.2432C38.4308 33.249 38.4695 33.2626 38.5044 33.2833C38.5394 33.304 38.5699 33.3314 38.5943 33.3639C38.6187 33.3964 38.6364 33.4334 38.6465 33.4727C38.6566 33.5121 38.6588 33.553 38.6531 33.5932C38.6473 33.6335 38.6337 33.6721 38.613 33.7071C38.5923 33.7421 38.5649 33.7726 38.5324 33.797C38.4598 33.851 38.3894 33.9091 38.3211 33.9711C38.291 33.9984 38.2558 34.0195 38.2175 34.0331C38.1792 34.0468 38.1386 34.0528 38.098 34.0507C38.0574 34.0487 38.0176 34.0387 37.9809 34.0213C37.9442 34.0038 37.9113 33.9793 37.884 33.9492L37.8834 33.9495ZM41.1935 33.233L41.196 33.2284L41.1935 33.233ZM39.131 33.104C39.1115 33.0243 39.1245 32.9402 39.167 32.8701C39.2095 32.7999 39.2781 32.7495 39.3578 32.73C39.4667 32.7032 39.577 32.6825 39.6882 32.6681C39.7291 32.6614 39.7709 32.663 39.8112 32.6728C39.8515 32.6826 39.8894 32.7004 39.9227 32.7251C39.956 32.7498 39.9839 32.781 40.0049 32.8167C40.0259 32.8525 40.0395 32.8921 40.0449 32.9332C40.0503 32.9743 40.0474 33.0161 40.0363 33.056C40.0253 33.096 40.0063 33.1333 39.9805 33.1657C39.9547 33.1982 39.9227 33.2252 39.8863 33.245C39.8499 33.2649 39.8099 33.2772 39.7686 33.2813C39.6799 33.2932 39.5919 33.3098 39.505 33.3311C39.4809 33.3371 39.456 33.3401 39.4311 33.3401C39.3615 33.3404 39.2938 33.3173 39.239 33.2745C39.1842 33.2317 39.1454 33.1716 39.1289 33.104H39.131Z" fill="#FF8E88"/>
<path d="M41.4414 35.7937C41.2728 35.7606 41.098 35.7942 40.9537 35.8874C40.8094 35.9807 40.707 36.1263 40.668 36.2936L41.6248 42.6432C42.706 41.9388 43.0581 41.3414 43.0444 39.7884C43.0395 39.127 42.3283 35.958 41.4414 35.7937Z" fill="#FFA39C"/>
<path d="M42.5363 51.5794C42.5363 51.5794 40.9276 47.9658 40.7058 46.9245C40.4385 45.6648 41.9451 42.5119 41.9451 42.5119C42.3477 41.3089 42.3267 40.0045 41.8857 38.8151C41.4739 37.7051 40.9527 36.3294 40.5895 35.2701C40.5374 35.1169 40.4349 34.9859 40.2987 34.8985C40.1626 34.8111 40.0008 34.7724 39.8398 34.7888C39.6788 34.8053 39.5282 34.8758 39.4124 34.9889C39.2967 35.102 39.2227 35.251 39.2026 35.4115C39.2026 35.4217 39.2005 35.4319 39.1995 35.4425C39.1463 36.0612 39.5451 38.584 39.722 39.3769C39.8928 40.141 38.7321 41.1946 38.1824 42.0064C36.4237 44.5951 37.2716 46.0788 37.6382 46.9252C37.9516 47.6488 38.8197 51.5813 38.8197 51.5813L42.5363 51.5794Z" fill="#FFC2B6"/>
<path d="M23.565 35.7972C22.6781 35.9615 21.9669 39.1306 21.9613 39.792C21.948 41.3449 22.2997 41.9423 23.3809 42.6467L24.3365 36.2972C24.2975 36.1303 24.1954 35.985 24.0515 35.8917C23.9077 35.7985 23.7333 35.7647 23.565 35.7972Z" fill="#FFA39C"/>
<path d="M22.4648 51.5794C22.4648 51.5794 24.0735 47.9658 24.2953 46.9245C24.5626 45.6648 23.056 42.5119 23.056 42.5119C22.6534 41.3089 22.6744 40.0045 23.1154 38.8151C23.5272 37.7051 24.0484 36.3294 24.4116 35.2701C24.4637 35.1169 24.5662 34.9859 24.7024 34.8985C24.8386 34.8111 25.0003 34.7724 25.1613 34.7888C25.3223 34.8053 25.473 34.8758 25.5887 34.9889C25.7044 35.102 25.7784 35.251 25.7985 35.4115C25.7985 35.4217 25.8006 35.4319 25.8016 35.4425C25.8548 36.0612 25.456 38.584 25.2791 39.3769C25.1083 40.141 26.269 41.1946 26.8187 42.0064C28.5774 44.5951 27.7295 46.0788 27.3629 46.9252C27.0495 47.6488 26.1815 51.5813 26.1815 51.5813L22.4648 51.5794Z" fill="#FFC2B6"/>
</svg>
