<svg width="15" height="17" viewBox="0 0 15 17" fill="none" xmlns="http://www.w3.org/2000/svg">
<path d="M8.35875 0.341678C8.12667 0.122258 7.81939 0 7.5 0C7.18061 0 6.87334 0.122258 6.64125 0.341678L0.586251 6.06418C0.400853 6.23962 0.253228 6.45107 0.152421 6.68557C0.0516138 6.92007 -0.000251965 7.17268 9.20315e-07 7.42793V14.3904C0.000332297 14.8875 0.198023 15.3641 0.549617 15.7154C0.901212 16.0668 1.37794 16.2642 1.875 16.2642H3.75C4.24728 16.2642 4.7242 16.0666 5.07583 15.715C5.42746 15.3634 5.625 14.8865 5.625 14.3892V11.2642C5.625 11.0984 5.69085 10.9394 5.80806 10.8222C5.92527 10.705 6.08424 10.6392 6.25 10.6392H8.75C8.91576 10.6392 9.07473 10.705 9.19194 10.8222C9.30915 10.9394 9.375 11.0984 9.375 11.2642V14.3892C9.375 14.8865 9.57254 15.3634 9.92418 15.715C10.2758 16.0666 10.7527 16.2642 11.25 16.2642H13.125C13.6223 16.2642 14.0992 16.0666 14.4508 15.715C14.8025 15.3634 15 14.8865 15 14.3892V7.42668C14.9999 7.17155 14.9478 6.91912 14.8468 6.68484C14.7457 6.45056 14.598 6.23937 14.4125 6.06418L8.35875 0.339178V0.341678Z" fill="#975169"/>
</svg>
