<svg width="65" height="65" viewBox="0 0 65 65" fill="none" xmlns="http://www.w3.org/2000/svg">
<circle cx="32.5" cy="32.5" r="32.5" fill="#F9E9EE"/>
<path d="M42.8764 37.9859C42.7202 35.3984 43.6186 33.5347 43.8139 28.8569C43.9527 25.5356 43.2242 20.9434 42.2164 19.1094C40.2708 15.5681 36.7514 12.9062 32.8861 12.9062C32.8861 12.9062 30.767 13.3 30.4545 13.4856C29.5655 14.0122 27.7042 14.7778 26.0014 17.4194C22.9545 22.1459 22.043 46.4859 22.043 46.4859H45.7539C45.3242 41.6353 43.0895 41.5175 42.8764 37.9859Z" fill="#703140"/>
<path d="M42.8764 37.9859C42.7202 35.3984 43.6186 33.5347 43.8139 28.8569C43.9527 25.5356 43.2242 20.9434 42.2164 19.1094C40.2708 15.5681 36.7514 12.9062 32.8861 12.9062C32.8861 12.9062 30.767 13.3 30.4545 13.4856C29.5655 14.0122 27.7042 14.7778 26.0014 17.4194C22.9545 22.1459 22.043 46.4859 22.043 46.4859H45.7539C45.3242 41.6353 43.0895 41.5175 42.8764 37.9859Z" fill="#703140"/>
<path d="M27.7398 45.0211C30.1397 45.0211 32.0852 41.0245 32.0852 36.0945C32.0852 31.1645 30.1397 27.168 27.7398 27.168C25.34 27.168 23.3945 31.1645 23.3945 36.0945C23.3945 41.0245 25.34 45.0211 27.7398 45.0211Z" fill="#894255"/>
<path d="M44.5534 50.7313H21.1959C19.7428 50.7313 20.4168 45.5125 21.5059 44.5031C22.8746 43.2375 26.3371 42.6062 28.109 41.7094C28.6304 41.4538 29.0798 41.0721 29.4165 40.599C29.7531 40.126 29.9665 39.5763 30.0371 39C30.134 38.4469 30.1403 37.6094 30.1715 37.2031H35.5778C35.609 37.6094 35.6153 38.4469 35.7121 39C35.7828 39.5763 35.9962 40.126 36.3328 40.599C36.6695 41.0721 37.1189 41.4538 37.6403 41.7094C39.4121 42.6062 42.8746 43.2375 44.2434 44.5031C45.3325 45.5125 46.0065 50.7313 44.5534 50.7313Z" fill="#FFA39C"/>
<path d="M35.7141 39C34.9573 39.4294 34.1396 39.7413 33.2891 39.925C33.0176 39.9875 32.7355 39.9875 32.4641 39.925C31.6135 39.7413 30.7959 39.4294 30.0391 39C30.1359 38.4469 30.1422 37.6094 30.1734 37.2031H35.5797C35.6109 37.6094 35.6172 38.4469 35.7141 39Z" fill="#F3878C"/>
<path d="M46.5242 51.357H19.223C19.1289 51.3567 19.0362 51.3353 18.9516 51.2944C18.8669 51.2534 18.7926 51.1939 18.7341 51.1204C18.6755 51.0468 18.6343 50.961 18.6134 50.8693C18.5925 50.7777 18.5924 50.6825 18.6133 50.5908C19.2839 47.6533 20.0436 45.8586 21.5048 44.5039C24.5923 47.3914 30.8673 47.5445 32.8736 47.5227C34.8798 47.5445 41.1548 47.3914 44.2423 44.5039C45.7036 45.8586 46.4633 47.6545 47.1339 50.5908C47.1547 50.6825 47.1547 50.7777 47.1338 50.8693C47.1129 50.961 47.0716 51.0468 47.0131 51.1204C46.9546 51.1939 46.8802 51.2534 46.7956 51.2944C46.711 51.3353 46.6182 51.3567 46.5242 51.357Z" fill="#F7CEBA"/>
<path d="M40.73 27.0422L40.0078 32.1475C41.2922 32.3572 42.7631 30.8785 42.9766 29.5947C43.2375 28.0175 42.3388 26.9082 40.73 27.0422Z" fill="#FFA39C"/>
<path d="M40.1719 30.0666C40.093 30.0666 40.0155 30.0467 39.9463 30.0088C39.8772 29.9708 39.8188 29.9161 39.7764 29.8496C39.7341 29.7831 39.7092 29.7069 39.7041 29.6282C39.699 29.5496 39.7138 29.4709 39.7472 29.3994C39.917 29.0973 40.1655 28.8469 40.4663 28.6749C40.7671 28.5028 41.1089 28.4155 41.4553 28.4222C41.5168 28.4278 41.5767 28.4456 41.6313 28.4744C41.686 28.5032 41.7344 28.5425 41.7738 28.5901C41.8132 28.6376 41.8428 28.6925 41.8609 28.7516C41.879 28.8107 41.8853 28.8727 41.8794 28.9342C41.8734 28.9957 41.8554 29.0554 41.8263 29.1099C41.7971 29.1644 41.7576 29.2126 41.7098 29.2517C41.662 29.2909 41.6069 29.3202 41.5477 29.338C41.4886 29.3557 41.4265 29.3617 41.365 29.3554C41.2114 29.3636 41.0619 29.4078 40.9285 29.4843C40.7951 29.5608 40.6815 29.6676 40.5969 29.796C40.5592 29.8769 40.4991 29.9453 40.4238 29.9933C40.3486 30.0412 40.2611 30.0666 40.1719 30.0666Z" fill="#F3878C"/>
<path d="M37.1939 19.5137C36.9316 19.416 36.6988 19.2524 36.518 19.0387C35.5745 17.879 34.342 17.5387 33.0845 17.4981C27.397 17.3228 25.3789 21.0681 25.0195 27.0422C25.0155 30.9068 26.0333 33.9993 27.7852 35.6965C28.8667 36.7443 30.2427 37.8768 32.4599 38.3659C32.7326 38.4262 33.0152 38.4262 33.288 38.3659C35.5052 37.8768 36.8817 36.7443 37.9627 35.6965C39.7145 33.9993 40.7324 30.9068 40.7283 27.0422C37.6517 24.145 39.7333 20.5125 37.1939 19.5137Z" fill="#FFB3A9"/>
<path d="M36.9628 26.9844H36.9625C36.5431 26.9844 36.2031 27.3244 36.2031 27.7438V28.1472C36.2031 28.5666 36.5431 28.9066 36.9625 28.9066H36.9628C37.3822 28.9066 37.7222 28.5666 37.7222 28.1472V27.7438C37.7222 27.3244 37.3822 26.9844 36.9628 26.9844Z" fill="#703140"/>
<path d="M40.73 33.1045C41.1073 33.1045 41.4131 32.7987 41.4131 32.4214C41.4131 32.0441 41.1073 31.7383 40.73 31.7383C40.3527 31.7383 40.0469 32.0441 40.0469 32.4214C40.0469 32.7987 40.3527 33.1045 40.73 33.1045Z" fill="#F7F0E8"/>
<path d="M20.1418 16.7214L20.4024 17.198C20.4477 17.2808 20.5158 17.3489 20.5986 17.3943L21.0752 17.6549C21.1529 17.6974 21.2178 17.76 21.2629 17.8362C21.3081 17.9123 21.3319 17.9993 21.3319 18.0878C21.3319 18.1764 21.3081 18.2634 21.2629 18.3395C21.2178 18.4157 21.1529 18.4783 21.0752 18.5208L20.5986 18.7818C20.5158 18.8271 20.4477 18.8952 20.4024 18.978L20.1418 19.4543C20.0993 19.532 20.0367 19.5968 19.9605 19.642C19.8843 19.6872 19.7974 19.711 19.7088 19.711C19.6202 19.711 19.5333 19.6872 19.4571 19.642C19.3809 19.5968 19.3183 19.532 19.2758 19.4543L19.0152 18.978C18.9699 18.8952 18.9018 18.8271 18.8189 18.7818L18.3427 18.5211C18.265 18.4786 18.2001 18.416 18.155 18.3398C18.1098 18.2637 18.0859 18.1767 18.0859 18.0882C18.0859 17.9996 18.1098 17.9127 18.155 17.8365C18.2001 17.7603 18.265 17.6977 18.3427 17.6552L18.8189 17.3946C18.9018 17.3492 18.9699 17.2811 19.0152 17.1983L19.2758 16.7218C19.3183 16.644 19.3809 16.5792 19.457 16.5339C19.5332 16.4887 19.6201 16.4649 19.7087 16.4648C19.7973 16.4648 19.8842 16.4886 19.9604 16.5338C20.0366 16.5789 20.0992 16.6437 20.1418 16.7214Z" fill="#FFB273"/>
<path d="M47.5548 28.813L47.7613 29.188C47.7971 29.2541 47.8514 29.3084 47.9176 29.3442L48.2948 29.5508C48.3563 29.5844 48.4077 29.634 48.4435 29.6943C48.4792 29.7546 48.4981 29.8235 48.4981 29.8936C48.4981 29.9637 48.4792 30.0326 48.4435 30.0929C48.4077 30.1532 48.3563 30.2028 48.2948 30.2364L47.9176 30.443C47.8515 30.4789 47.7972 30.5331 47.7613 30.5992L47.5548 30.9764C47.5211 31.038 47.4716 31.0893 47.4113 31.1251C47.3509 31.1609 47.2821 31.1798 47.212 31.1798C47.1418 31.1798 47.073 31.1609 47.0127 31.1251C46.9523 31.0893 46.9028 31.038 46.8691 30.9764L46.6626 30.5992C46.6267 30.5331 46.5724 30.4789 46.5063 30.443L46.1291 30.2364C46.0676 30.2028 46.0162 30.1532 45.9804 30.0929C45.9447 30.0326 45.9258 29.9637 45.9258 29.8936C45.9258 29.8235 45.9447 29.7546 45.9804 29.6943C46.0162 29.634 46.0676 29.5844 46.1291 29.5508L46.5073 29.3442C46.5734 29.3084 46.6277 29.2541 46.6635 29.188L46.8701 28.8108C46.904 28.7496 46.9537 28.6986 47.014 28.6632C47.0744 28.6277 47.1431 28.6092 47.2131 28.6094C47.283 28.6096 47.3517 28.6286 47.4118 28.6644C47.4719 28.7002 47.5213 28.7515 47.5548 28.813Z" fill="#FFCBA4"/>
<path d="M33.2136 47.9915C33.0926 47.9915 32.9789 47.9915 32.8698 47.9896C30.4064 48.0165 24.3126 47.769 21.1882 44.8461C21.1416 44.8046 21.1037 44.7541 21.0768 44.6976C21.0499 44.6412 21.0346 44.58 21.0317 44.5175C21.0289 44.4551 21.0385 44.3927 21.0601 44.3341C21.0818 44.2754 21.1149 44.2217 21.1576 44.176C21.2002 44.1303 21.2516 44.0937 21.3087 44.0682C21.3658 44.0426 21.4273 44.0288 21.4898 44.0275C21.5523 44.0261 21.6145 44.0373 21.6726 44.0603C21.7307 44.0833 21.7836 44.1177 21.8282 44.1615C24.7854 46.9277 31.0248 47.0715 32.8698 47.0521C34.7207 47.0696 40.9651 46.9271 43.9226 44.1615C43.9672 44.1177 44.0202 44.0833 44.0783 44.0603C44.1364 44.0373 44.1985 44.0261 44.261 44.0275C44.3235 44.0288 44.3851 44.0426 44.4422 44.0682C44.4992 44.0937 44.5506 44.1303 44.5933 44.176C44.636 44.2217 44.6691 44.2754 44.6907 44.3341C44.7123 44.3927 44.722 44.4551 44.7191 44.5175C44.7163 44.58 44.7009 44.6412 44.6741 44.6976C44.6472 44.7541 44.6093 44.8046 44.5626 44.8461C41.5754 47.6424 35.8698 47.9915 33.2136 47.9915Z" fill="#F7F0E8"/>
<path d="M38.1164 50.205C38.0049 50.2048 37.8971 50.1649 37.8124 50.0924C37.7277 50.0199 37.6716 49.9196 37.6542 49.8094C37.524 48.9789 37.3456 48.1565 37.1202 47.3466C37.0995 47.2875 37.0908 47.2249 37.0946 47.1624C37.0985 47.1 37.1149 47.0389 37.1427 46.9828C37.1706 46.9268 37.2094 46.8769 37.2568 46.836C37.3043 46.7952 37.3594 46.7643 37.419 46.7452C37.4786 46.726 37.5414 46.719 37.6038 46.7245C37.6661 46.73 37.7268 46.7479 37.7821 46.7773C37.8374 46.8066 37.8862 46.8467 37.9258 46.8952C37.9654 46.9437 37.9948 46.9997 38.0124 47.0597C38.2537 47.9154 38.4433 48.7848 38.5802 49.6632C38.5995 49.7859 38.5693 49.9113 38.4963 50.0118C38.4232 50.1123 38.3132 50.1797 38.1905 50.1991C38.166 50.2031 38.1412 50.2051 38.1164 50.205Z" fill="#F7F0E8"/>
<path d="M27.6335 50.205C27.6087 50.2051 27.584 50.2031 27.5595 50.1991C27.4367 50.1797 27.3268 50.1123 27.2537 50.0118C27.1806 49.9113 27.1504 49.7859 27.1698 49.6632C27.3067 48.7848 27.4963 47.9154 27.7376 47.0597C27.7552 46.9997 27.7846 46.9437 27.8242 46.8952C27.8637 46.8467 27.9126 46.8066 27.9679 46.7773C28.0232 46.7479 28.0838 46.73 28.1462 46.7245C28.2085 46.719 28.2714 46.726 28.331 46.7452C28.3905 46.7643 28.4457 46.7952 28.4931 46.836C28.5406 46.8769 28.5794 46.9268 28.6073 46.9828C28.6351 47.0389 28.6515 47.1 28.6553 47.1624C28.6592 47.2249 28.6505 47.2875 28.6298 47.3466C28.4043 48.1565 28.2259 48.9788 28.0957 49.8094C28.0783 49.9196 28.0222 50.0199 27.9375 50.0924C27.8528 50.1649 27.745 50.2048 27.6335 50.205Z" fill="#F7F0E8"/>
<path d="M32.8867 50.4623C32.7624 50.4623 32.6432 50.413 32.5553 50.325C32.4674 50.2371 32.418 50.1179 32.418 49.9936V47.5195C32.418 47.3952 32.4674 47.276 32.5553 47.1881C32.6432 47.1002 32.7624 47.0508 32.8867 47.0508C33.011 47.0508 33.1303 47.1002 33.2182 47.1881C33.3061 47.276 33.3555 47.3952 33.3555 47.5195V49.9936C33.3555 50.1179 33.3061 50.2371 33.2182 50.325C33.1303 50.413 33.011 50.4623 32.8867 50.4623Z" fill="#F7F0E8"/>
<path d="M32.8848 31.3077C33.2889 31.2945 33.6744 31.1344 33.9688 30.8573C34.0176 30.8217 34.0585 30.7764 34.089 30.7242C34.1194 30.6721 34.1387 30.6142 34.1456 30.5541C34.1525 30.4941 34.147 30.4334 34.1293 30.3756C34.1115 30.3179 34.0821 30.2644 34.0427 30.2186C34.0033 30.1728 33.9548 30.1357 33.9004 30.1095C33.8459 30.0834 33.7867 30.0688 33.7263 30.0667C33.6659 30.0646 33.6058 30.075 33.5497 30.0972C33.4935 30.1195 33.4426 30.1532 33.4001 30.1961C33.3369 30.2708 33.2582 30.3309 33.1695 30.3721C33.0807 30.4133 32.984 30.4347 32.8862 30.4347C32.7883 30.4347 32.6916 30.4133 32.6029 30.3721C32.5141 30.3309 32.4354 30.2708 32.3723 30.1961C32.2835 30.1309 32.1733 30.1015 32.0638 30.114C31.9543 30.1265 31.8536 30.1798 31.7817 30.2633C31.7098 30.3468 31.6721 30.4544 31.6761 30.5646C31.6801 30.6747 31.7255 30.7792 31.8032 30.8573C32.0971 31.1338 32.4815 31.2939 32.8848 31.3077Z" fill="#F3878C"/>
<path d="M35.3491 33.0345C35.3411 32.991 35.3246 32.9496 35.3006 32.9124C35.2766 32.8753 35.2455 32.8433 35.2091 32.8182C35.1727 32.7931 35.1318 32.7754 35.0885 32.7661C35.0453 32.7569 35.0007 32.7562 34.9572 32.7642H34.9506C34.631 32.8251 34.3034 32.8308 33.9819 32.7811C33.9016 32.7692 33.8234 32.7533 33.7288 32.7345C33.5901 32.7018 33.4466 32.6946 33.3053 32.7133C33.1569 32.739 33.0158 32.7964 32.8916 32.8814C32.886 32.8837 32.8801 32.8849 32.8741 32.8849C32.8681 32.8849 32.8621 32.8837 32.8566 32.8814C32.7323 32.7963 32.5912 32.739 32.4428 32.7133C32.3016 32.6946 32.1581 32.7018 32.0194 32.7345C31.9256 32.7533 31.8466 32.7692 31.7663 32.7811C31.4447 32.8308 31.1171 32.8251 30.7975 32.7642H30.7906C30.7096 32.7498 30.6261 32.7654 30.5559 32.8083C30.4856 32.8512 30.4335 32.9183 30.4094 32.997C30.3852 33.0757 30.3907 33.1605 30.4248 33.2354C30.4589 33.3103 30.5192 33.3701 30.5944 33.4036C30.9849 33.5762 31.4088 33.6603 31.8356 33.6498C31.9416 33.6477 32.0484 33.6389 32.1388 33.6327C32.2225 33.6255 32.2325 33.6345 32.3628 33.7105C32.5065 33.7976 32.6707 33.845 32.8388 33.8477C32.8491 33.8477 32.8953 33.8477 32.9088 33.8477C33.0768 33.845 33.241 33.7977 33.3847 33.7105C33.5141 33.6345 33.525 33.6255 33.6091 33.6327C33.6991 33.6389 33.8063 33.6477 33.9119 33.6498C34.3387 33.6603 34.7626 33.5762 35.1531 33.4036C35.2225 33.3731 35.2796 33.32 35.3152 33.2531C35.3507 33.1861 35.3627 33.1091 35.3491 33.0345Z" fill="#F3878C"/>
<path d="M33.1371 34.2752C33.0602 34.3162 32.9743 34.3377 32.8871 34.3377C32.7999 34.3377 32.714 34.3162 32.6371 34.2752C32.5813 34.245 32.52 34.2265 32.4568 34.2207C32.3937 34.2149 32.33 34.222 32.2697 34.2415C32.2094 34.2611 32.1536 34.2926 32.1058 34.3343C32.0581 34.376 32.0192 34.427 31.9917 34.4841C31.9642 34.5413 31.9486 34.6034 31.9458 34.6668C31.943 34.7301 31.953 34.7934 31.9754 34.8527C31.9978 34.9121 32.0319 34.9663 32.0758 35.012C32.1197 35.0578 32.1725 35.0942 32.2308 35.119C32.4345 35.2211 32.6592 35.2743 32.8871 35.2743C33.115 35.2743 33.3397 35.2211 33.5433 35.119C33.6493 35.0616 33.7292 34.9657 33.7663 34.851C33.8034 34.7364 33.7949 34.6119 33.7427 34.5033C33.6904 34.3948 33.5983 34.3105 33.4856 34.268C33.3728 34.2255 33.248 34.2281 33.1371 34.2752Z" fill="#F3878C"/>
<path d="M39.4348 42.6631C41.8011 46.6922 42.2926 51.3578 42.2926 51.3578H45.4926C45.4926 51.3578 44.9848 46.3181 42.5789 42.9659C42.5145 42.8645 42.418 42.7875 42.3048 42.7472L40.0201 42.0478C39.6448 41.9328 39.2361 42.3247 39.4348 42.6631Z" fill="#FFE2D2"/>
<path d="M35.4898 26.9496C35.7085 26.6411 36.0168 26.4073 36.3729 26.2799C36.7351 26.1616 37.122 26.14 37.4951 26.2174C37.6664 26.2512 37.8349 26.2977 37.9992 26.3565C38.0789 26.3877 38.1586 26.419 38.2342 26.4527C38.3023 26.4805 38.369 26.5118 38.4339 26.5465C38.5184 26.5899 38.6085 26.6214 38.7017 26.6402C38.798 26.6609 38.8983 26.6524 38.9898 26.6159L39.0379 26.5984C39.0737 26.585 39.1124 26.5819 39.1498 26.5893C39.1872 26.5967 39.2218 26.6144 39.2497 26.6403C39.2777 26.6662 39.2979 26.6994 39.308 26.7362C39.3182 26.7729 39.318 26.8118 39.3073 26.8484C39.2707 26.9587 39.2078 27.0586 39.1241 27.1393C39.0404 27.22 38.9383 27.2792 38.8267 27.3118C38.6136 27.3704 38.3885 27.3692 38.1761 27.3084C38.0689 27.2799 38.0079 27.2599 37.9392 27.2381C37.8704 27.2162 37.802 27.1974 37.7339 27.1799C37.6028 27.1419 37.4698 27.1106 37.3354 27.0862C37.0967 27.0349 36.8501 27.0319 36.6101 27.0774C36.3654 27.1358 36.1346 27.242 35.9311 27.3899L35.9198 27.3971C35.8584 27.4383 35.7845 27.4566 35.711 27.4488C35.6375 27.4409 35.5691 27.4075 35.5178 27.3542C35.4665 27.301 35.4356 27.2314 35.4304 27.1576C35.4253 27.0839 35.4463 27.0107 35.4898 26.9509V26.9496Z" fill="#894255"/>
<path d="M35.1197 24.3691C35.5028 24.1942 35.9128 24.086 36.3322 24.0491C36.7348 24.0045 37.1414 24.0104 37.5426 24.0666C37.9395 24.1224 38.3326 24.2026 38.7197 24.3066C39.1164 24.4043 39.4988 24.5527 39.8576 24.7481C39.9024 24.7736 39.9363 24.8147 39.9527 24.8637C39.9691 24.9126 39.9669 24.9658 39.9465 25.0132C39.926 25.0606 39.8888 25.0987 39.8419 25.1204C39.7951 25.142 39.7419 25.1455 39.6926 25.1303L39.6785 25.1253C39.3282 25.0261 38.9688 24.9626 38.6057 24.9356C38.2362 24.9051 37.8652 24.8965 37.4947 24.91L36.401 24.9412C36.0503 24.9558 35.7007 24.9909 35.3541 25.0466L35.3357 25.0497C35.2499 25.0644 35.1617 25.0476 35.0874 25.0024C35.013 24.9572 34.9575 24.8867 34.9311 24.8037C34.9047 24.7208 34.9091 24.6312 34.9436 24.5513C34.9781 24.4714 35.0403 24.4067 35.1188 24.3691H35.1197Z" fill="#894255"/>
<path d="M36.9628 26.9844H36.9625C36.5431 26.9844 36.2031 27.3244 36.2031 27.7438V28.1472C36.2031 28.5666 36.5431 28.9066 36.9625 28.9066H36.9628C37.3822 28.9066 37.7222 28.5666 37.7222 28.1472V27.7438C37.7222 27.3244 37.3822 26.9844 36.9628 26.9844Z" fill="#703140"/>
<path d="M35.4898 26.9496C35.7085 26.6411 36.0168 26.4073 36.3729 26.2799C36.7351 26.1616 37.122 26.14 37.4951 26.2174C37.6664 26.2512 37.8349 26.2977 37.9992 26.3565C38.0789 26.3877 38.1586 26.419 38.2342 26.4527C38.3023 26.4805 38.369 26.5118 38.4339 26.5465C38.5184 26.5899 38.6085 26.6214 38.7017 26.6402C38.798 26.6609 38.8983 26.6524 38.9898 26.6159L39.0379 26.5984C39.0737 26.585 39.1124 26.5819 39.1498 26.5893C39.1872 26.5967 39.2218 26.6144 39.2497 26.6403C39.2777 26.6662 39.2979 26.6994 39.308 26.7362C39.3182 26.7729 39.318 26.8118 39.3073 26.8484C39.2707 26.9587 39.2078 27.0586 39.1241 27.1393C39.0404 27.22 38.9383 27.2792 38.8267 27.3118C38.6136 27.3704 38.3885 27.3692 38.1761 27.3084C38.0689 27.2799 38.0079 27.2599 37.9392 27.2381C37.8704 27.2162 37.802 27.1974 37.7339 27.1799C37.6028 27.1419 37.4698 27.1106 37.3354 27.0862C37.0967 27.0349 36.8501 27.0319 36.6101 27.0774C36.3654 27.1358 36.1346 27.242 35.9311 27.3899L35.9198 27.3971C35.8584 27.4383 35.7845 27.4566 35.711 27.4488C35.6375 27.4409 35.5691 27.4075 35.5178 27.3542C35.4665 27.301 35.4356 27.2314 35.4304 27.1576C35.4253 27.0839 35.4463 27.0107 35.4898 26.9509V26.9496Z" fill="#894255"/>
<path d="M35.1197 24.3691C35.5028 24.1942 35.9128 24.086 36.3322 24.0491C36.7348 24.0045 37.1414 24.0104 37.5426 24.0666C37.9395 24.1224 38.3326 24.2026 38.7197 24.3066C39.1164 24.4043 39.4988 24.5527 39.8576 24.7481C39.9024 24.7736 39.9363 24.8147 39.9527 24.8637C39.9691 24.9126 39.9669 24.9658 39.9465 25.0132C39.926 25.0606 39.8888 25.0987 39.8419 25.1204C39.7951 25.142 39.7419 25.1455 39.6926 25.1303L39.6785 25.1253C39.3282 25.0261 38.9688 24.9626 38.6057 24.9356C38.2362 24.9051 37.8652 24.8965 37.4947 24.91L36.401 24.9412C36.0503 24.9558 35.7007 24.9909 35.3541 25.0466L35.3357 25.0497C35.2499 25.0644 35.1617 25.0476 35.0874 25.0024C35.013 24.9572 34.9575 24.8867 34.9311 24.8037C34.9047 24.7208 34.9091 24.6312 34.9436 24.5513C34.9781 24.4714 35.0403 24.4067 35.1188 24.3691H35.1197Z" fill="#894255"/>
<path d="M28.7911 28.9062H28.7914C29.2108 28.9062 29.5508 28.5663 29.5508 28.1469V27.7434C29.5508 27.324 29.2108 26.9841 28.7914 26.9841H28.7911C28.3717 26.9841 28.0317 27.324 28.0317 27.7434V28.1469C28.0317 28.5663 28.3717 28.9062 28.7911 28.9062Z" fill="#703140"/>
<path d="M30.263 26.9496C30.0443 26.6411 29.736 26.4073 29.3799 26.2799C29.0177 26.1615 28.6308 26.14 28.2577 26.2174C28.0865 26.2513 27.918 26.2977 27.7536 26.3565C27.6739 26.3878 27.5946 26.419 27.5189 26.4528C27.4508 26.4804 27.3841 26.5117 27.3193 26.5465C27.2347 26.5899 27.1446 26.6214 27.0514 26.6403C26.955 26.6609 26.8546 26.6524 26.763 26.6159L26.7149 26.5984C26.6792 26.5852 26.6405 26.5821 26.6031 26.5896C26.5658 26.597 26.5313 26.6147 26.5033 26.6406C26.4754 26.6665 26.4553 26.6996 26.445 26.7363C26.4348 26.773 26.435 26.8118 26.4455 26.8484C26.4822 26.9588 26.5451 27.0586 26.6289 27.1394C26.7126 27.2201 26.8148 27.2793 26.9264 27.3118C27.1394 27.3704 27.3644 27.3692 27.5768 27.3084C27.6839 27.2799 27.7452 27.2599 27.8136 27.2381C27.8821 27.2162 27.9508 27.1974 28.0189 27.1799C28.1502 27.1419 28.2833 27.1106 28.4177 27.0862C28.6565 27.0349 28.9031 27.0319 29.143 27.0774C29.3877 27.1358 29.6185 27.242 29.8221 27.3899L29.833 27.3971C29.8944 27.4384 29.9683 27.4566 30.0418 27.4488C30.1153 27.441 30.1837 27.4075 30.235 27.3542C30.2863 27.301 30.3173 27.2314 30.3224 27.1576C30.3275 27.0839 30.3065 27.0107 30.263 26.9509V26.9496Z" fill="#894255"/>
<path d="M30.6353 24.3691C30.2521 24.1942 29.842 24.086 29.4225 24.0491C29.02 24.0045 28.6135 24.0104 28.2125 24.0666C27.8154 24.1225 27.4222 24.2026 27.035 24.3066C26.6383 24.4044 26.2559 24.5528 25.8971 24.7481C25.8528 24.7739 25.8195 24.8151 25.8035 24.8638C25.7874 24.9126 25.7898 24.9655 25.8102 25.0126C25.8306 25.0597 25.8675 25.0977 25.914 25.1193C25.9605 25.141 26.0133 25.1449 26.0625 25.1303L26.0765 25.1253C26.4268 25.0261 26.7863 24.9625 27.1493 24.9356C27.5187 24.9051 27.8896 24.8965 28.26 24.91L29.3537 24.9413C29.7044 24.9558 30.054 24.991 30.4006 25.0466L30.419 25.0497C30.5048 25.0644 30.593 25.0476 30.6673 25.0024C30.7417 24.9572 30.7972 24.8867 30.8236 24.8037C30.85 24.7208 30.8456 24.6312 30.8111 24.5513C30.7766 24.4714 30.7144 24.4067 30.6359 24.3691H30.6353Z" fill="#894255"/>
<path d="M32.8866 12.9062C29.015 12.9062 25.1912 15.6394 23.6581 19.3841C22.1762 23.0022 21.7716 25.7966 21.9784 28.5625C22.2909 32.7422 21.4866 35.7719 20.0722 37.9859C18.9668 39.8108 18.1598 41.8004 17.6819 43.8797C17.1819 46.0103 17.2284 47.6559 18.2419 48.9791C19.8244 51.0453 21.575 51.3228 23.9828 51.3228C25.7872 51.3228 27.1741 49.7734 26.5631 48.0628C24.7541 42.9981 27.2047 42.7522 26.9137 38.7437C26.7472 36.4522 25.2025 33.2581 26.6097 30.3556C28.0587 27.3669 26.7444 24.1484 29.1794 19.9428C30.3094 17.9906 31.5609 17.4475 33.0878 17.4963L32.8866 12.9062Z" fill="#703140"/>
</svg>
