<svg width="19" height="20" viewBox="0 0 19 20" fill="none" xmlns="http://www.w3.org/2000/svg">
<path d="M18.9556 1.26808L18.8348 0L17.6271 0.402566C15.5573 1.12169 13.3471 1.34237 11.176 1.04667C8.89461 0.692626 6.5595 1.00724 4.45316 1.95244C3.33652 2.42792 2.35655 3.17515 1.60247 4.12611C0.848381 5.07706 0.344137 6.20153 0.135642 7.39715C-0.134702 8.94168 0.000542522 10.5299 0.528143 12.0065C0.867863 11.2397 1.26484 10.4996 1.71571 9.79241C2.73843 8.28766 4.15554 7.09339 5.81182 6.34041C7.40743 5.61189 9.15149 5.26722 10.9043 5.334C9.23566 5.58912 7.63846 6.18893 6.21438 7.09522C5.52748 7.52682 4.89843 8.04427 4.34245 8.63504C3.81073 9.22552 3.3419 9.86974 2.94354 10.5573C2.1953 11.9945 1.66289 13.534 1.36347 15.1264C1.04072 16.7239 0.86554 18.3477 0.840132 19.9773H2.85296C2.94756 18.5158 3.14599 17.0629 3.44674 15.6296C4.84308 16.3836 6.40898 16.7682 7.99574 16.7467C9.47564 16.7457 10.9403 16.448 12.3032 15.8712C19.962 12.6003 18.9556 1.72097 18.9556 1.26808Z" fill="#75AF77"/>
</svg>
