<svg width="65" height="65" viewBox="0 0 65 65" fill="none" xmlns="http://www.w3.org/2000/svg">
<circle cx="32.5" cy="32.5" r="32.5" fill="#F9E9EE"/>
<path d="M45.5826 46.9476C44.753 42.6644 41.6056 36.7371 40.4284 34.6204C40.1432 34.1071 40.0722 33.5021 40.2308 32.9368L41.9476 26.8075C45.9871 23.5024 44.4046 19.6642 43.3442 17.9324C43.1713 17.6483 42.9283 17.4133 42.6386 17.2501C42.3488 17.0868 42.0219 17.0008 41.6893 17.0001C37.1445 17.0009 27.9988 16.9996 23.4551 17.0001C23.1225 17.0007 22.7956 17.0868 22.5059 17.25C22.2161 17.4132 21.9731 17.6481 21.8002 17.9322C20.7398 19.664 19.1572 23.5022 23.1968 26.8073L24.9136 32.9366C25.0722 33.5019 25.0011 34.1069 24.716 34.6202C23.5388 36.7371 20.3914 42.6646 19.5617 46.9476C19.5333 47.0924 19.5372 47.2416 19.5733 47.3847C19.6093 47.5277 19.6766 47.661 19.7702 47.775C19.8639 47.889 19.9816 47.9809 20.1149 48.044C20.2483 48.1071 20.3939 48.1399 20.5414 48.1401C26.537 48.1374 38.6084 48.1419 44.6029 48.1401C44.7505 48.1399 44.8961 48.1071 45.0295 48.044C45.1628 47.9809 45.2805 47.889 45.3742 47.775C45.4678 47.661 45.5351 47.5277 45.5711 47.3847C45.6072 47.2416 45.6111 47.0924 45.5826 46.9476Z" fill="url(#paint0_linear_108_20091)"/>
<path d="M40.9551 30.3477H24.1875L24.5648 31.6946C26.5491 32.0442 32.4063 32.8206 40.5865 31.6644L40.9551 30.3477Z" fill="#E59791"/>
<path d="M40.8198 30.822L41.9442 26.8075C45.9837 23.5024 44.4013 19.6642 43.3409 17.9324C43.168 17.6483 42.925 17.4133 42.6352 17.2501C42.3454 17.0868 42.0186 17.0008 41.686 17.0001C37.1412 17.0009 27.9955 16.9996 23.4517 17.0001C23.1191 17.0008 22.7923 17.0868 22.5025 17.2501C22.2127 17.4133 21.9697 17.6483 21.7968 17.9324C20.7365 19.6642 19.1539 23.5024 23.1935 26.8075L24.3179 30.822C25.5744 30.987 28.2208 31.2508 32.3011 31.2508C36.0699 31.2894 39.7168 30.9915 40.8198 30.822Z" fill="url(#paint1_linear_108_20091)"/>
<path d="M29.4656 25.8382C28.1878 26.645 26.9439 27.1701 25.4611 27.2426C24.63 27.2795 23.8312 27.1624 23.1953 26.8059L23.6355 28.3776C26.6856 28.8544 28.6939 27.3147 29.7376 26.1569C29.7716 26.1187 29.7907 26.0696 29.7912 26.0184C29.7918 25.9673 29.7738 25.9177 29.7406 25.8789C29.7075 25.84 29.6613 25.8144 29.6107 25.807C29.5602 25.7995 29.5086 25.8106 29.4656 25.8382Z" fill="#E29E7D"/>
<path d="M41.9437 26.8124C41.3096 27.1638 40.5156 27.2795 39.6896 27.2427C38.2059 27.1701 36.964 26.6455 35.6853 25.8384C35.6423 25.8107 35.5907 25.7995 35.54 25.8069C35.4894 25.8144 35.4432 25.8399 35.4099 25.8789C35.3767 25.9178 35.3588 25.9675 35.3594 26.0187C35.36 26.0699 35.3792 26.1191 35.4134 26.1572C36.456 27.3137 38.4608 28.851 41.5051 28.3793L41.9437 26.8124Z" fill="#E29E7D"/>
<path d="M41.8899 37.3789C37.3818 40.6987 27.718 40.6734 23.2545 37.3789C21.8708 40.1195 20.1445 43.9391 19.5617 46.9475C19.5333 47.0923 19.5372 47.2415 19.5733 47.3846C19.6093 47.5276 19.6766 47.6609 19.7702 47.7749C19.8639 47.8889 19.9816 47.9808 20.1149 48.0439C20.2483 48.107 20.3939 48.1398 20.5414 48.14C26.5387 48.139 38.6072 48.1406 44.6029 48.14C44.7505 48.1398 44.8961 48.107 45.0295 48.0439C45.1628 47.9808 45.2805 47.8889 45.3742 47.7749C45.4678 47.6609 45.5351 47.5276 45.5711 47.3846C45.6072 47.2415 45.6111 47.0923 45.5826 46.9475C44.9999 43.9391 43.2736 40.1195 41.8899 37.3789Z" fill="url(#paint2_linear_108_20091)"/>
<path d="M26.1368 45.1852L26.8946 48.1403H28.4669L26.623 44.9856C26.5905 44.9307 26.5393 44.8894 26.4788 44.8692C26.4184 44.849 26.3526 44.8512 26.2937 44.8754C26.2347 44.8996 26.1864 44.9442 26.1576 45.0011C26.1288 45.058 26.1214 45.1233 26.1368 45.1852Z" fill="#4D4D4D"/>
<path d="M32.5694 36.4991C32.4401 36.4991 32.3162 36.4478 32.2248 36.3564C32.1334 36.265 32.082 36.141 32.082 36.0118V35.6557C32.1043 35.0106 33.0346 35.0106 33.0567 35.6557V36.0118C33.0567 36.141 33.0054 36.265 32.914 36.3564C32.8226 36.4478 32.6986 36.4991 32.5694 36.4991Z" fill="#DD8E8A"/>
<path d="M39.002 45.1852L38.2442 48.1403H36.6719L38.5158 44.9856C38.5483 44.9307 38.5995 44.8894 38.6599 44.8692C38.7204 44.849 38.7861 44.8512 38.8451 44.8754C38.9041 44.8996 38.9524 44.9442 38.9812 45.0011C39.01 45.058 39.0174 45.1233 39.002 45.1852Z" fill="#4D4D4D"/>
<path d="M19.595 33.4544L17.3628 32.1652C17.326 32.144 17.2843 32.1328 17.2419 32.1328C17.1994 32.1328 17.1577 32.144 17.1209 32.1652C17.0842 32.1864 17.0536 32.217 17.0324 32.2537C17.0112 32.2905 17 32.3322 17 32.3747V34.9525C17 34.995 17.0112 35.0367 17.0324 35.0735C17.0537 35.1102 17.0842 35.1407 17.121 35.1619C17.1577 35.1832 17.1994 35.1943 17.2419 35.1943C17.2843 35.1943 17.326 35.1832 17.3628 35.1619L19.595 33.8727C19.6316 33.8515 19.662 33.821 19.6832 33.7842C19.7043 33.7475 19.7155 33.7059 19.7155 33.6635C19.7155 33.6212 19.7043 33.5795 19.6832 33.5428C19.662 33.5061 19.6316 33.4756 19.595 33.4544Z" fill="#E53455"/>
<path d="M45.5463 33.4544L47.7785 32.1652C47.8153 32.144 47.857 32.1328 47.8994 32.1328C47.9419 32.1328 47.9836 32.144 48.0203 32.1652C48.0571 32.1864 48.0876 32.217 48.1089 32.2537C48.1301 32.2905 48.1413 32.3322 48.1413 32.3747V34.9525C48.1413 34.995 48.1301 35.0367 48.1088 35.0735C48.0876 35.1102 48.0571 35.1407 48.0203 35.1619C47.9835 35.1832 47.9418 35.1943 47.8994 35.1943C47.8569 35.1943 47.8153 35.1832 47.7785 35.1619L45.5463 33.8727C45.5097 33.8515 45.4792 33.821 45.4581 33.7842C45.4369 33.7475 45.4258 33.7059 45.4258 33.6635C45.4258 33.6212 45.4369 33.5795 45.4581 33.5428C45.4792 33.5061 45.5097 33.4756 45.5463 33.4544Z" fill="#E53455"/>
<defs>
<linearGradient id="paint0_linear_108_20091" x1="28.7105" y1="30.2589" x2="44.7609" y2="44.6197" gradientUnits="userSpaceOnUse">
<stop stop-color="#FFB3A9"/>
<stop offset="1" stop-color="#EFA69A"/>
</linearGradient>
<linearGradient id="paint1_linear_108_20091" x1="30.0246" y1="18.3979" x2="38.1799" y2="31.2134" gradientUnits="userSpaceOnUse">
<stop stop-color="#F7CEBA"/>
<stop offset="1" stop-color="#F7CEBA"/>
</linearGradient>
<linearGradient id="paint2_linear_108_20091" x1="28.0775" y1="39.1555" x2="38.507" y2="52.1193" gradientUnits="userSpaceOnUse">
<stop stop-color="#999999"/>
<stop offset="1" stop-color="#808080"/>
</linearGradient>
</defs>
</svg>
