<svg width="65" height="65" viewBox="0 0 65 65" fill="none" xmlns="http://www.w3.org/2000/svg">
<circle cx="32.5" cy="32.5" r="32.5" fill="#F9E9EE"/>
<path d="M45.5826 45.7335C44.753 41.4765 41.6056 35.5854 40.4284 33.4815C40.1432 32.9714 40.0722 32.3701 40.2308 31.8082L41.9476 25.7163C45.9871 22.4314 44.4046 18.6167 43.3442 16.8955C43.1713 16.6131 42.9283 16.3795 42.6386 16.2173C42.3488 16.055 42.0219 15.9695 41.6893 15.9689C37.1445 15.9697 27.9988 15.9684 23.4551 15.9689C23.1225 15.9695 22.7956 16.055 22.5059 16.2172C22.2161 16.3794 21.9731 16.6129 21.8002 16.8953C20.7398 18.6165 19.1572 22.4312 23.1968 25.7161L24.9136 31.808C25.0722 32.3699 25.0011 32.9712 24.716 33.4813C23.5388 35.5854 20.3914 41.4767 19.5617 45.7335C19.5333 45.8774 19.5372 46.0257 19.5733 46.1679C19.6093 46.3101 19.6766 46.4426 19.7702 46.5559C19.8639 46.6692 19.9816 46.7605 20.1149 46.8232C20.2483 46.8859 20.3939 46.9185 20.5414 46.9187C26.537 46.9161 38.6084 46.9206 44.6029 46.9187C44.7505 46.9185 44.8961 46.8859 45.0295 46.8232C45.1628 46.7605 45.2805 46.6692 45.3742 46.5559C45.4678 46.4426 45.5351 46.3101 45.5711 46.1679C45.6072 46.0257 45.6111 45.8774 45.5826 45.7335Z" fill="url(#paint0_linear_1033_11799)"/>
<path d="M40.9551 29.2344H24.1875L24.5648 30.5731C26.5491 30.9206 32.4063 31.6922 40.5865 30.5431L40.9551 29.2344Z" fill="#E59791"/>
<path d="M40.8198 29.7064L41.9442 25.7163C45.9837 22.4314 44.4013 18.6167 43.3409 16.8955C43.168 16.6131 42.925 16.3795 42.6352 16.2173C42.3454 16.055 42.0186 15.9695 41.686 15.9689C37.1412 15.9697 27.9955 15.9684 23.4517 15.9689C23.1191 15.9695 22.7923 16.055 22.5025 16.2173C22.2127 16.3795 21.9697 16.6131 21.7968 16.8955C20.7365 18.6167 19.1539 22.4314 23.1935 25.7163L24.3179 29.7064C25.5744 29.8704 28.2208 30.1325 32.3011 30.1325C36.0699 30.1709 39.7168 29.8749 40.8198 29.7064Z" fill="url(#paint1_linear_1033_11799)"/>
<path d="M29.4656 24.7521C28.1878 25.5539 26.9439 26.0758 25.4611 26.1479C24.63 26.1846 23.8312 26.0682 23.1953 25.7139L23.6355 27.2759C26.6856 27.7498 28.6939 26.2195 29.7376 25.0688C29.7716 25.0309 29.7907 24.982 29.7912 24.9312C29.7918 24.8804 29.7738 24.8311 29.7406 24.7925C29.7075 24.7538 29.6613 24.7284 29.6107 24.721C29.5602 24.7136 29.5086 24.7246 29.4656 24.7521Z" fill="#E29E7D"/>
<path d="M41.9437 25.7203C41.3096 26.0696 40.5156 26.1845 39.6896 26.148C38.2059 26.0758 36.964 25.5545 35.6853 24.7523C35.6423 24.7247 35.5907 24.7136 35.54 24.721C35.4894 24.7284 35.4432 24.7538 35.4099 24.7925C35.3767 24.8312 35.3588 24.8806 35.3594 24.9314C35.36 24.9823 35.3792 25.0312 35.4134 25.0691C36.456 26.2185 38.4608 27.7464 41.5051 27.2777L41.9437 25.7203Z" fill="#E29E7D"/>
<path d="M41.8899 36.2227C37.3818 39.5222 27.718 39.497 23.2545 36.2227C21.8708 38.9465 20.1445 42.7428 19.5617 45.7328C19.5333 45.8767 19.5372 46.0251 19.5733 46.1672C19.6093 46.3094 19.6766 46.4419 19.7702 46.5552C19.8639 46.6685 19.9816 46.7598 20.1149 46.8225C20.2483 46.8852 20.3939 46.9179 20.5414 46.918C26.5387 46.917 38.6072 46.9187 44.6029 46.918C44.7505 46.9179 44.8961 46.8852 45.0295 46.8225C45.1628 46.7598 45.2805 46.6685 45.3742 46.5552C45.4678 46.4419 45.5351 46.3094 45.5711 46.1672C45.6072 46.0251 45.6111 45.8767 45.5826 45.7328C44.9999 42.7428 43.2736 38.9465 41.8899 36.2227Z" fill="url(#paint2_linear_1033_11799)"/>
<path d="M26.1368 43.98L26.8946 46.9171H28.4669L26.623 43.7816C26.5905 43.7271 26.5393 43.6861 26.4788 43.666C26.4184 43.6459 26.3526 43.6481 26.2937 43.6721C26.2347 43.6962 26.1864 43.7405 26.1576 43.7971C26.1288 43.8536 26.1214 43.9185 26.1368 43.98Z" fill="#4D4D4D"/>
<path d="M32.5694 35.3504C32.4401 35.3504 32.3162 35.2993 32.2248 35.2085C32.1334 35.1177 32.082 34.9945 32.082 34.866V34.5121C32.1043 33.871 33.0346 33.871 33.0567 34.5121V34.866C33.0567 34.9945 33.0054 35.1177 32.914 35.2085C32.8226 35.2993 32.6986 35.3504 32.5694 35.3504Z" fill="#DD8E8A"/>
<path d="M39.002 43.98L38.2442 46.9171H36.6719L38.5158 43.7816C38.5483 43.7271 38.5995 43.6861 38.6599 43.666C38.7204 43.6459 38.7861 43.6481 38.8451 43.6721C38.9041 43.6962 38.9524 43.7405 38.9812 43.7971C39.01 43.8536 39.0174 43.9185 39.002 43.98Z" fill="#4D4D4D"/>
<path d="M19.595 32.3213L17.3628 31.04C17.326 31.0189 17.2843 31.0078 17.2419 31.0078C17.1994 31.0078 17.1577 31.0189 17.1209 31.04C17.0842 31.0611 17.0536 31.0915 17.0324 31.128C17.0112 31.1645 17 31.206 17 31.2482V33.8103C17 33.8525 17.0112 33.894 17.0324 33.9305C17.0537 33.967 17.0842 33.9974 17.121 34.0185C17.1577 34.0395 17.1994 34.0506 17.2419 34.0506C17.2843 34.0506 17.326 34.0395 17.3628 34.0184L19.595 32.7371C19.6316 32.716 19.662 32.6857 19.6832 32.6492C19.7043 32.6127 19.7155 32.5713 19.7155 32.5292C19.7155 32.4871 19.7043 32.4457 19.6832 32.4092C19.662 32.3727 19.6316 32.3424 19.595 32.3213Z" fill="#E53455"/>
<path d="M45.5463 32.3213L47.7785 31.04C47.8153 31.0189 47.857 31.0078 47.8994 31.0078C47.9419 31.0078 47.9836 31.0189 48.0203 31.04C48.0571 31.0611 48.0876 31.0915 48.1089 31.128C48.1301 31.1645 48.1413 31.206 48.1413 31.2482V33.8103C48.1413 33.8525 48.1301 33.894 48.1088 33.9305C48.0876 33.967 48.0571 33.9974 48.0203 34.0185C47.9835 34.0395 47.9418 34.0506 47.8994 34.0506C47.8569 34.0506 47.8153 34.0395 47.7785 34.0184L45.5463 32.7371C45.5097 32.716 45.4792 32.6857 45.4581 32.6492C45.4369 32.6127 45.4258 32.5713 45.4258 32.5292C45.4258 32.4871 45.4369 32.4457 45.4581 32.4092C45.4792 32.3727 45.5097 32.3424 45.5463 32.3213Z" fill="#E53455"/>
<defs>
<linearGradient id="paint0_linear_1033_11799" x1="28.7105" y1="29.1467" x2="44.6734" y2="43.517" gradientUnits="userSpaceOnUse">
<stop stop-color="#FFB3A9"/>
<stop offset="1" stop-color="#EFA69A"/>
</linearGradient>
<linearGradient id="paint1_linear_1033_11799" x1="30.0246" y1="17.3581" x2="38.109" y2="30.1402" gradientUnits="userSpaceOnUse">
<stop stop-color="#F7CEBA"/>
<stop offset="1" stop-color="#F7CEBA"/>
</linearGradient>
<linearGradient id="paint2_linear_1033_11799" x1="28.0775" y1="37.9884" x2="38.4295" y2="50.935" gradientUnits="userSpaceOnUse">
<stop stop-color="#999999"/>
<stop offset="1" stop-color="#808080"/>
</linearGradient>
</defs>
</svg>
