<svg width="235" height="30" viewBox="0 0 235 30" fill="none" xmlns="http://www.w3.org/2000/svg">
<circle cx="15" cy="15" r="14.5" stroke="#975169"/>
<circle cx="15" cy="15" r="7" fill="#975169"/>
<path d="M13.4992 17.1008L11.3992 15.0008L10.6992 15.7008L13.4992 18.5008L19.4992 12.5008L18.7992 11.8008L13.4992 17.1008Z" fill="white"/>
<circle cx="117" cy="15" r="14.5" stroke="#975169"/>
<circle cx="117" cy="15" r="7" fill="#975169"/>
<path d="M115.499 17.1008L113.399 15.0008L112.699 15.7008L115.499 18.5008L121.499 12.5008L120.799 11.8008L115.499 17.1008Z" fill="white"/>
<circle cx="220" cy="15" r="14.5" stroke="#975169"/>
<circle cx="220" cy="15" r="7" fill="#975169"/>
<path d="M218.499 17.1008L216.399 15.0008L215.699 15.7008L218.499 18.5008L224.499 12.5008L223.799 11.8008L218.499 17.1008Z" fill="white"/>
</svg>
